<svg xmlns="http://www.w3.org/2000/svg" viewBox="0 0 48 48"><defs><style>.cls-1{fill:#db5669;}.cls-2{fill:#c4455e;}.cls-3{fill:#f26674;}.cls-4{fill:#dad7e5;}.cls-5{fill:#edebf2;}</style></defs><title>Merchandise Clothes</title><g id="Merchandise_Clothes" data-name="Merchandise Clothes"><path class="cls-1" d="M32,1A8,8,0,0,1,16,1Z"/><path class="cls-2" d="M29,1a8,8,0,0,1-6.5,7.85A8,8,0,0,0,32,1Z"/><path class="cls-1" d="M47,19l-9,8V47H10V27L1,19S3.43,13.43,8,3l8-2A8,8,0,0,0,32,1l8,2C44.57,13.43,47,19,47,19Z"/><path class="cls-3" d="M47,19l-9,8V45H19a6,6,0,0,1-6-6V1.75L16,1A8,8,0,0,0,32,1l8,2Z"/><path class="cls-1" d="M40,18v7.22L38,27V18A1,1,0,0,1,40,18Z"/><path class="cls-2" d="M10,18v9L8,25.22V18A1,1,0,0,1,10,18Z"/><path class="cls-4" d="M5.29,19.71l-3.2-3.2.86-2,3.76,3.76A1,1,0,0,1,5.29,19.71Z"/><path class="cls-5" d="M45.91,16.51C42.44,20,42.56,20,42,20a1,1,0,0,1-.71-1.71l3.76-3.76Z"/><path class="cls-5" d="M17,37a1,1,0,0,1-.71-1.71l14-14a1,1,0,0,1,1.42,1.42C16.41,38,17.59,37,17,37Z"/><path class="cls-5" d="M19,28a4,4,0,1,1,4-4A4,4,0,0,1,19,28Zm0-6a2,2,0,1,0,2,2A2,2,0,0,0,19,22Z"/><path class="cls-5" d="M29,38a4,4,0,1,1,4-4A4,4,0,0,1,29,38Zm0-6a2,2,0,1,0,2,2A2,2,0,0,0,29,32Z"/></g></svg>