<?xml version="1.0" encoding="iso-8859-1"?>
<!-- Uploaded to: SVG Repo, www.svgrepo.com, Generator: SVG Repo Mixer Tools -->
<svg version="1.1" id="Layer_1" xmlns="http://www.w3.org/2000/svg" xmlns:xlink="http://www.w3.org/1999/xlink" 
	 viewBox="0 0 512 512" xml:space="preserve">
<path style="fill:#DFDFE2;" d="M339.852,0H172.145c-27.238,0-49.399,22.16-49.399,49.399V462.6c0,27.238,22.16,49.399,49.399,49.399
	h167.707c27.238,0,49.399-22.16,49.399-49.399V49.399C389.251,22.16,367.09,0,339.852,0z"/>
<rect x="122.755" y="82.233" style="fill:#FE9379;" width="266.48" height="343.259"/>
<g>
	<rect x="230.442" y="452.451" style="fill:#57565C;" width="51.116" height="31.347"/>
	<rect x="199.053" y="46.709" style="fill:#57565C;" width="78.356" height="18.807"/>
	<rect x="294.139" y="46.709" style="fill:#57565C;" width="18.797" height="18.807"/>
</g>
<path style="fill:#D7D6D9;" d="M389.254,49.403v413.194c0,27.241-22.162,49.403-49.403,49.403h-83.916V0h83.916
	C367.091,0,389.254,22.162,389.254,49.403z"/>
<rect x="255.937" y="82.233" style="fill:#FE633E;" width="133.308" height="343.259"/>
<g>
	<rect x="255.937" y="452.451" style="fill:#3E3D43;" width="25.621" height="31.347"/>
	<rect x="255.937" y="46.707" style="fill:#3E3D43;" width="21.473" height="18.808"/>
	<rect x="294.139" y="46.709" style="fill:#3E3D43;" width="18.797" height="18.807"/>
</g>
</svg>